# xmcd
#
# Track frame offsets:
#	150
#	12232
#	26522
#	38559
#	52955
#	70693
#	84051
#	97429
#	111514
#	129186
#	148817
#
# Disc length: 2185 seconds
#
# Revision: 1
# Processed by: cddbd v1.4b42PL1 Copyright (c) Steve Scherf et al.
# Submitted via: audiograbber 1.80
#
DISCID=8b08870b
DTITLE=Jeff and Sheri Easter - Silent Witness 
DYEAR=1900
DGENRE=
TTITLE0=We Need Hope
TTITLE1=Thomas
TTITLE2=I Want A Deeper Walk With God
TTITLE3=A Love That Keeps On Giving
TTITLE4=Speak To The Mountain
TTITLE5=In God's Hands
TTITLE6=Let The Little Things Go
TTITLE7=Silent Witness
TTITLE8=Cain And Abel
TTITLE9=Hope For The Hopeless
TTITLE10=He Pilots My Ship
EXTD=
EXTT0=
EXTT1=
EXTT2=
EXTT3=
EXTT4=
EXTT5=
EXTT6=
EXTT7=
EXTT8=
EXTT9=
EXTT10=
PLAYORDER=
